<svg xmlns="http://www.w3.org/2000/svg" aria-hidden="true" style="position:absolute;width:0;height:0;overflow:hidden"><defs><symbol id="flag-ua" viewBox="0 0 36 36"><path fill="#005BBB" d="M32 5H4a4 4 0 0 0-4 4v9h36V9a4 4 0 0 0-4-4z"/><path fill="#FFD500" d="M36 27a4 4 0 0 1-4 4H4a4 4 0 0 1-4-4v-9h36v9z"/></symbol><symbol id="flag-en" viewBox="0 -4 28 28"><rect width="28" height="20" fill="#fff" rx="2"/><path fill="#0A17A7" d="M0 0h28v20H0z"/><path fill="#fff" d="m-1.282-1.916 11.949 8.059v-7.476h6.667v7.476l11.949-8.059 1.491 2.21-9.448 6.373H28v6.667h-6.674l9.448 6.373-1.491 2.211-11.949-8.06v7.476h-6.667v-7.476l-11.949 8.059-1.492-2.211 9.448-6.373H0V6.667h6.674L-2.774.294l1.492-2.21Z"/><path stroke="#DB1F35" stroke-width=".667" d="M18.668 6.332 31.333-2m-11.32 15.698 11.354 7.653M8.006 6.31-3.837-1.671M9.29 13.605l-13.128 8.706"/><path fill="#E6273E" d="M0 12h12v8h4v-8h12V8H16V0h-4v8H0v4Z"/></symbol><symbol id="icon-github" viewBox="0 0 32 32"><path d="M16 1.375c-8.282 0-14.996 6.714-14.996 14.996 0 6.585 4.245 12.18 10.148 14.195l.106.031c.75.141 1.025-.322 1.025-.721 0-.356-.012-1.3-.019-2.549-4.171.905-5.051-2.012-5.051-2.012a3.995 3.995 0 0 0-1.653-2.184l-.016-.009c-1.358-.93.105-.911.105-.911a3.151 3.151 0 0 1 2.289 1.53l.008.015a3.2 3.2 0 0 0 4.383 1.238l-.016.008a3.194 3.194 0 0 1 .949-2.005l.001-.001c-3.33-.375-6.831-1.665-6.831-7.41l-.001-.089c0-1.521.587-2.905 1.547-3.938l-.003.004a5.236 5.236 0 0 1-.321-1.821c0-.777.166-1.516.465-2.182l-.014.034s1.256-.402 4.124 1.537c1.124-.321 2.415-.506 3.749-.506s2.625.185 3.849.53l-.1-.024c2.849-1.939 4.105-1.537 4.105-1.537.285.642.451 1.39.451 2.177 0 .642-.11 1.258-.313 1.83l.012-.038A5.786 5.786 0 0 1 25.52 15.5l-.001.091v-.005c0 5.761-3.505 7.029-6.842 7.398a3.579 3.579 0 0 1 1.011 2.787l.001-.012c0 2.007-.019 3.619-.019 4.106 0 .394.262.862 1.031.712 6.028-2.029 10.292-7.629 10.292-14.226 0-8.272-6.706-14.977-14.977-14.977h-.019.001z"/></symbol><symbol id="icon-mobile" viewBox="0 0 32 32"><path d="M23 0H9C7.35 0 6 1.35 6 3v26c0 1.65 1.35 3 3 3h14c1.65 0 3-1.35 3-3V3c0-1.65-1.35-3-3-3zM12 1.5h8v1h-8v-1zM16 30a2 2 0 1 1-.001-3.999A2 2 0 0 1 16 30zm8-6H8V4h16v20z"/></symbol><symbol id="icon-linkedin" viewBox="0 0 32 32"><path d="M29.333 16c0 7.364-5.97 13.333-13.333 13.333S2.667 23.363 2.667 16C2.667 8.636 8.637 2.667 16 2.667S29.333 8.637 29.333 16z"/><path fill="transparent" d="M12.516 9.523c0 .83-.632 1.502-1.62 1.502-.95 0-1.582-.672-1.562-1.502C9.314 8.653 9.946 8 10.915 8s1.582.652 1.601 1.523zM9.413 21.879V12.21h3.005v9.668l-3.005.001zM14.826 15.296c0-1.206-.04-2.234-.079-3.084h2.61l.139 1.325h.059c.395-.613 1.384-1.542 2.985-1.542 1.977 0 3.46 1.305 3.46 4.151v5.735h-3.005v-5.358c0-1.246-.435-2.096-1.522-2.096-.831 0-1.325.573-1.522 1.127a2.142 2.142 0 0 0-.119.752v5.576h-3.005v-6.584h-.001z" style="fill:currentColor"/></symbol><symbol id="icon-whatsapp" viewBox="0 0 32 32"><path d="M16 1.28C7.884 1.28 1.28 7.884 1.28 16c0 2.534.655 5.027 1.896 7.226l-1.873 6.682a.639.639 0 0 0 .771.794l6.973-1.727A14.728 14.728 0 0 0 16 30.721c8.116 0 14.72-6.604 14.72-14.72S24.116 1.281 16 1.281zm7.405 19.914c-.315.872-1.825 1.667-2.551 1.774-.652.095-1.476.136-2.381-.148a22.197 22.197 0 0 1-2.154-.787c-3.791-1.617-6.266-5.386-6.456-5.635S8.32 14.375 8.32 12.539 9.296 9.8 9.643 9.426c.347-.374.756-.467 1.008-.467s.504.003.724.013c.232.012.544-.088.851.641.315.748 1.071 2.584 1.164 2.771.095.187.157.405.032.654s-.188.404-.378.623-.397.486-.567.654c-.189.186-.386.388-.166.762s.979 1.596 2.102 2.585c1.443 1.271 2.661 1.665 3.039 1.852s.598.156.819-.093c.22-.25.945-1.09 1.196-1.463s.504-.312.851-.187c.347.124 2.205 1.027 2.582 1.213s.63.28.724.436c.095.155.095.902-.22 1.773z"/></symbol><symbol id="icon-slack" viewBox="0 0 32 32"><path fill="#de1c59" d="M6.814 20.18c0 1.832-1.494 3.329-3.327 3.329S.158 22.012.158 20.18s1.497-3.329 3.329-3.329h3.327zm1.677 0c0-1.832 1.497-3.329 3.329-3.329s3.329 1.497 3.329 3.329v8.334c0 1.832-1.496 3.329-3.329 3.329s-3.329-1.497-3.329-3.329z" style="fill:var(--color1, #de1c59)"/><path fill="#35c5f0" d="M11.82 6.814c-1.832 0-3.329-1.494-3.329-3.327S9.988.158 11.82.158s3.329 1.497 3.329 3.329v3.327zm0 1.677c1.832 0 3.329 1.497 3.329 3.329s-1.496 3.329-3.329 3.329H3.486c-1.833 0-3.329-1.496-3.329-3.329s1.497-3.329 3.329-3.329z" style="fill:var(--color2, #35c5f0)"/><path fill="#2eb57d" d="M25.186 11.82c0-1.832 1.494-3.329 3.327-3.329s3.329 1.497 3.329 3.329-1.497 3.329-3.329 3.329h-3.327zm-1.677 0c0 1.832-1.497 3.329-3.329 3.329s-3.329-1.496-3.329-3.329V3.486c0-1.833 1.497-3.329 3.329-3.329s3.329 1.497 3.329 3.329z" style="fill:var(--color3, #2eb57d)"/><path fill="#ebb02e" d="M20.18 25.186c1.832 0 3.329 1.494 3.329 3.327s-1.497 3.329-3.329 3.329-3.329-1.497-3.329-3.329v-3.327zm0-1.677c-1.832 0-3.329-1.497-3.329-3.329s1.497-3.329 3.329-3.329h8.334c1.832 0 3.329 1.497 3.329 3.329s-1.497 3.329-3.329 3.329z" style="fill:var(--color4, #ebb02e)"/></symbol><symbol id="icon-viber" viewBox="0 0 32 32"><path d="M15.197.003C12.63.038 7.108.459 4.018 3.29 1.725 5.57.923 8.931.83 13.094.75 17.241.657 25.027 8.163 27.149v3.227s-.051 1.293.803 1.56c1.053.333 1.653-.665 2.653-1.732l1.867-2.107c5.133.427 9.067-.559 9.52-.705 1.04-.333 6.908-1.081 7.868-8.869.987-8.041-.48-13.108-3.12-15.401l-.013-.003c-.8-.733-4-3.067-11.16-3.093 0 0-.528-.033-1.384-.021zm.09 2.262c.727-.004 1.173.027 1.173.027 6.053.013 8.948 1.84 9.628 2.453 2.227 1.905 3.371 6.475 2.533 13.189-.8 6.507-5.56 6.92-6.44 7.2-.373.12-3.84.973-8.203.693 0 0-3.252 3.921-4.265 4.935-.16.173-.347.227-.467.2-.173-.04-.227-.253-.213-.547l.027-5.359c-6.361-1.76-5.988-8.403-5.921-11.869.08-3.467.733-6.309 2.667-8.229 2.609-2.36 7.3-2.68 9.481-2.693zm.48 3.467h-.001a.4.4 0 0 0 .001.799l.143-.001c2.034 0 3.88.809 5.232 2.123l-.002-.002c1.453 1.413 2.161 3.307 2.188 5.787a.4.4 0 0 0 .4.4v-.012a.4.4 0 0 0 .4-.4 8.575 8.575 0 0 0-2.415-6.349l.002.002c-1.587-1.547-3.589-2.347-5.948-2.347zm-5.272.92a1.263 1.263 0 0 0-.826.163l.006-.003h-.016c-.547.32-1.051.72-1.531 1.253-.36.427-.561.852-.615 1.265a1.634 1.634 0 0 0 .07.733l-.003-.012.027.013a18.197 18.197 0 0 0 1.646 3.549l-.046-.082a20.684 20.684 0 0 0 3.101 4.237l-.008-.009.04.053.053.04.08.08a20.864 20.864 0 0 0 4.136 3.053l.104.054c1.76.96 2.829 1.413 3.469 1.6v.013c.187.053.357.08.531.08a2.447 2.447 0 0 0 1.471-.631l-.002.002a6.03 6.03 0 0 0 1.24-1.531v-.013c.307-.573.2-1.121-.24-1.495a18.139 18.139 0 0 0-2.781-2.007l-.085-.046c-.68-.373-1.373-.147-1.653.227l-.6.759c-.307.373-.867.32-.867.32l-.016.013c-4.16-1.067-5.267-5.279-5.267-5.279s-.053-.573.333-.867l.747-.6c.36-.293.613-.987.227-1.667a18.073 18.073 0 0 0-2.071-2.887l.017.02a1.127 1.127 0 0 0-.665-.399l-.007-.001zm5.964 1.187a.401.401 0 0 0 .001.8h.001a5.027 5.027 0 0 1 3.532 1.532l.001.001a4.646 4.646 0 0 1 1.199 3.44l.001-.014c.001.22.18.399.4.399l.013.016a.4.4 0 0 0 .4-.4v-.001c.04-1.587-.453-2.92-1.427-3.987s-2.333-1.667-4.067-1.787l-.028-.001-.029.001h.001zm.653 2.158H17.1a.407.407 0 0 0-.012.815h.001c1.32.067 1.96.733 2.04 2.107a.4.4 0 0 0 .4.387h.013a.4.4 0 0 0 .388-.4l-.001-.028v.001c-.093-1.787-1.067-2.788-2.8-2.881h-.016z"/></symbol><symbol id="icon-telegram" viewBox="0 0 32 32"><path d="M22.122 10.04h.022c.209 0 .403.065.562.177l-.003-.002a.632.632 0 0 1 .213.403v.003a2.553 2.553 0 0 1 .024.598v-.009c-.225 2.369-1.201 8.114-1.697 10.766-.21 1.123-.623 1.499-1.023 1.535-.869.081-1.529-.574-2.371-1.126-1.318-.865-2.063-1.403-3.342-2.246-1.479-.973-.52-1.51.322-2.384.221-.23 4.052-3.715 4.127-4.031a.308.308 0 0 0-.07-.265.34.34 0 0 0-.185-.053.364.364 0 0 0-.128.024l.002-.001q-.198.045-6.316 4.174a2.805 2.805 0 0 1-1.619.599h-.006a10.542 10.542 0 0 1-2.401-.573l.074.024c-.938-.306-1.683-.467-1.619-.985q.051-.404 1.114-.827 6.548-2.853 8.733-3.761a22.627 22.627 0 0 1 5.429-2.01l.157-.031zM15.93 1.025C7.628 1.045.905 7.78.905 16.085c0 8.317 6.742 15.06 15.06 15.06s15.06-6.742 15.06-15.06c0-8.305-6.723-15.04-15.023-15.06H15.93z"/></symbol><symbol id="icon-mail" viewBox="0 0 32 32"><path d="M16 0C7.163 0 0 7.163 0 16s7.163 16 16 16 16-7.163 16-16S24.837 0 16 0zM8 8h16c.286 0 .563.061.817.177L16 18.463 7.183 8.176c.254-.116.531-.177.817-.177zM6 22V10c0-.042.002-.084.004-.125l5.864 6.842-5.8 5.8A1.983 1.983 0 0 1 5.999 22zm18 2H8c-.177 0-.35-.024-.517-.069l5.691-5.691L16 21.537l2.826-3.297 5.691 5.691c-.167.045-.34.069-.517.069zm2-2c0 .177-.024.35-.069.517l-5.8-5.8 5.865-6.842c.003.041.004.083.004.125v12z"/></symbol><symbol id="icon-phone" viewBox="0 0 32 32"><path d="m20.742 19.397-.607.639s-1.443 1.52-5.383-2.628-2.497-5.668-2.497-5.668l.382-.403c.942-.992 1.031-2.584.209-3.747l-1.681-2.378c-1.017-1.439-2.983-1.629-4.149-.401L4.923 7.014c-.578.609-.966 1.398-.919 2.273.12 2.239 1.077 7.057 6.417 12.679 5.662 5.961 10.975 6.198 13.148 5.984.687-.068 1.285-.438 1.766-.945l1.894-1.994c1.279-1.346.918-3.654-.718-4.595l-2.547-1.466c-1.074-.618-2.383-.437-3.222.447zM17.679 2.506a1.002 1.002 0 0 1 1.149-.827l.199.039c.114.025.273.064.47.122.396.115.949.305 1.612.609 1.328.609 3.096 1.674 4.931 3.509s2.9 3.602 3.509 4.931c.304.663.494 1.216.609 1.612a7.282 7.282 0 0 1 .15.606l.008.042c.088.545-.278 1.082-.823 1.17a1 1 0 0 1-1.146-.823 6.15 6.15 0 0 0-.109-.437c-.09-.31-.247-.77-.507-1.338-.52-1.134-1.454-2.699-3.105-4.35s-3.216-2.585-4.35-3.105a9.864 9.864 0 0 0-1.338-.507 7.348 7.348 0 0 0-.423-.106 1.012 1.012 0 0 1-.836-1.149zM17.981 7.106a1 1 0 0 1 1.236-.687l-.275.962.275-.962.002.001.006.002.01.003.026.008.075.025c.06.021.139.051.236.093.194.083.46.212.786.405.653.386 1.543 1.028 2.59 2.074s1.688 1.938 2.074 2.59c.193.326.321.591.405.786a3.537 3.537 0 0 1 .118.311l.008.026.003.01.001.004.001.002s.001.002-.961.277l.962-.275a1 1 0 0 1-1.919.563l-.005-.014a2.58 2.58 0 0 0-.046-.117 4.879 4.879 0 0 0-.288-.555c-.297-.502-.834-1.261-1.768-2.195s-1.692-1.47-2.195-1.768a4.965 4.965 0 0 0-.555-.288 1.735 1.735 0 0 0-.117-.046l-.014-.005a.999.999 0 0 1-.673-1.232z"/></symbol><symbol id="icon-email" viewBox="0 0 32 32"><path d="M31.917 7.017A4.42 4.42 0 0 0 30.7 4.742a4.429 4.429 0 0 0-3.138-1.301H4.44A4.436 4.436 0 0 0 .088 7.017a4.26 4.26 0 0 0-.087.863v16.24c0 .623.132 1.222.368 1.763.219.516.541.983.933 1.375a4.434 4.434 0 0 0 3.138 1.301h23.122a4.408 4.408 0 0 0 2.833-1.024 4.445 4.445 0 0 0 1.243-1.652v-.004a4.387 4.387 0 0 0 .363-1.759V7.88c0-.293-.029-.583-.083-.863zm-29.01-.669a2.145 2.145 0 0 1 1.532-.636h23.122a2.137 2.137 0 0 1 1.727.863L17.169 17.137a1.759 1.759 0 0 1-1.169.438c-.417 0-.83-.145-1.168-.438L2.717 6.57c.054-.078.12-.152.19-.223zM2.271 24.12V8.921l8.77 7.651-8.766 7.643c-.004-.029-.004-.062-.004-.095zm25.29 2.167H4.439c-.393 0-.76-.103-1.073-.285l9.249-8.06.863.751a3.85 3.85 0 0 0 2.522.946c.9 0 1.805-.318 2.527-.946l.863-.751 9.245 8.06a2.144 2.144 0 0 1-1.074.285zm2.168-2.167c0 .033 0 .066-.004.095l-8.766-7.638 8.77-7.651v15.195z"/></symbol><symbol id="icon-location" viewBox="0 0 32 32"><path d="M16 0C10.477 0 6 4.477 6 10c0 10 10 22 10 22s10-12 10-22c0-5.523-4.477-10-10-10zm0 16.125a6.125 6.125 0 1 1 0-12.25 6.125 6.125 0 0 1 0 12.25zM12.125 10a3.875 3.875 0 1 1 7.75 0 3.875 3.875 0 0 1-7.75 0z"/></symbol><symbol id="icon-education" viewBox="0 0 24 24"  height="30"
        width="30"><path d="M12 0C5.373 0 0 5.373 0 12s5.373 12 12 12 12-5.373 12-12S18.627 0 12 0zm0 22c-5.518 0-10-4.482-10-10s4.482-10 10-10 10 4.482 10 10-4.482 10-10 10zm-1-16h2v6h-2zm0 8h2v2h-2z" /></symbol>
        </defs></svg>